<svg xmlns="http://www.w3.org/2000/svg" xmlns:xlink="http://www.w3.org/1999/xlink" width="368" height="97" version="1.1" viewBox="0 0 368 97"><title>third_selected</title><desc>Created with Sketch.</desc><defs><rect id="path-1" width="352" height="81" x="0" y="0" rx="2"/><filter id="filter-2" width="106.8%" height="129.6%" x="-3.4%" y="-14.8%" filterUnits="objectBoundingBox"><feOffset dx="0" dy="0" in="SourceAlpha" result="shadowOffsetOuter1"/><feGaussianBlur in="shadowOffsetOuter1" result="shadowBlurOuter1" stdDeviation="4"/><feColorMatrix in="shadowBlurOuter1" type="matrix" values="0 0 0 0 0 0 0 0 0 0 0 0 0 0 0 0 0 0 0.302065122 0"/></filter></defs><g id="[Screens]" fill="none" fill-rule="evenodd" stroke="none" stroke-width="1"><g id="ambient-mode-settings" transform="translate(-544.000000, -597.000000)"><g id="third_selected" transform="translate(552.000000, 605.000000)"><g id="Rectangle" fill-rule="nonzero"><use fill="#000" fill-opacity="1" filter="url(#filter-2)" xlink:href="#path-1"/><use fill="#FFF" xlink:href="#path-1"/></g><g id="content" transform="translate(51.000000, 15.000000)"><g id="text" fill="#111" transform="translate(67.500000, 0.000000)"><text id="Begin-with-a-single" font-family="Dosis-Light, Dosis" font-size="14" font-weight="300"><tspan x=".5" y="43">Begin with a single tiny white flower.</tspan></text><text id="Tiny-White-Flower" font-family="Dosis-SemiBold, Dosis" font-size="22" font-weight="500"><tspan x="0" y="23">Tiny White Flower</tspan></text></g><g id="check" fill-rule="nonzero" transform="translate(0.000000, 1.000000)"><circle id="Oval" cx="25" cy="25" r="25" fill="#FFBE8D"/><g id="Path" fill="#111"><path d="M25.090379,0.946058091 L25.090379,0.946058091 C25.5984236,1.4744537 25.5984236,2.30977867 25.090379,2.83817427 L10.2718726,18.2502723 C9.88909022,18.648388 9.25604726,18.6608181 8.85793159,18.2780357 C8.84849632,18.2689638 8.83924008,18.2597076 8.83016821,18.2502723 L0.9138322,10.016828 C0.403435511,9.48598615 0.403435511,8.64679393 0.9138322,8.11595205 L0.9138322,8.11595205 C1.39908961,7.61125646 2.20160508,7.59549871 2.70630067,8.08075612 C2.71826185,8.09225663 2.72999609,8.10399086 2.7414966,8.11595205 L9.55944282,15.2070078 L23.271137,0.946058091 C23.7541582,0.44368829 24.5529755,0.428003151 25.0553453,0.911024354 C25.0672513,0.922471862 25.0789315,0.934152025 25.090379,0.946058091 Z" transform="translate(12.000000, 17.000000)"/></g></g></g></g></g></g></svg>