<svg xmlns="http://www.w3.org/2000/svg" xmlns:xlink="http://www.w3.org/1999/xlink" width="150" height="49" version="1.1" viewBox="0 0 150 49"><g id="Symbols" fill="none" fill-rule="evenodd" stroke="none" stroke-width="1"><g id="button_resume"><rect id="button" width="148.214" height="46.429" x=".893" y=".893" fill-rule="nonzero" stroke="#69ab6c" stroke-width="1.786" rx="23.214"/><rect id="button" width="141.071" height="39.286" x="4.464" y="4.464" fill="#69ab6c" fill-rule="nonzero" rx="19.643"/><g id="icon_resume" fill="#202020" fill-rule="nonzero" transform="translate(115, 18)"><path id="Path" d="M6.53116153,6.19276043 L1.35280105,11.3711209 C1.21811337,11.5058086 1.05186076,11.5542112 0.854038232,11.5163303 C0.656215703,11.4784494 0.473127385,11.3753307 0.304767786,11.2069711 C0.153244146,11.0554475 0.0564388289,10.8828815 0.0143489291,10.6892679 C-0.0277409707,10.4956544 0.0227661514,10.3272973 0.165871811,10.1841917 L4.58156712,5.76849636 L0.165871811,1.35280105 C0.0311841314,1.21811337 -0.0172185273,1.05186076 0.0206623825,0.854038232 C0.0585432923,0.656215703 0.161662,0.473127385 0.330021599,0.304767786 C0.481545239,0.153244146 0.654111239,0.0564388289 0.847724778,0.0143489291 C1.04133832,-0.0277409707 1.20969539,0.0227661514 1.35280105,0.165871811 L6.53116153,5.34423229 C6.76547611,5.57854687 6.76547611,5.95844585 6.53116153,6.19276043 Z"/></g></g></g></svg>