<svg xmlns="http://www.w3.org/2000/svg" xmlns:xlink="http://www.w3.org/1999/xlink" width="35" height="40" version="1.1" viewBox="0 0 35 40"><title>demo_flower_red</title><desc>Created with Sketch.</desc><g id="demo_flower_red" fill="none" fill-rule="evenodd" stroke="none" stroke-width="1"><g id="flower_red" fill-rule="nonzero"><path id="petals" fill="#E33131" d="M0.861919257,29.5014261 C1.84823838,23.3078623 5.36001031,20.0307041 11.397235,19.6699515 L11.397235,19.6652832 C5.36001031,19.3045306 1.84823838,16.0273724 0.861919257,9.83380868 C6.70434932,7.59066159 11.2911899,9.02009249 14.6224411,14.1221014 C11.8920969,8.67138303 12.9538974,3.9640159 17.8078427,0 C22.6617879,3.9640159 23.7235885,8.67138303 20.9932442,14.1221014 C24.3244954,9.02009249 28.911336,7.59066159 34.7537661,9.83380868 C33.7674469,16.0273724 30.255675,19.3045306 24.2184503,19.6652832 L24.2198137,19.6676174 C30.255675,20.0307041 33.7674469,23.3078623 34.7537661,29.5014261 C28.911336,31.7445731 24.3244954,30.3151423 20.9932442,25.2131334 C23.7235885,30.6638517 22.6617879,35.3712188 17.8078427,39.3352347 C12.9538974,35.3712188 11.8920969,30.6638517 14.6224411,25.2131334 C11.2911899,30.3151423 6.70434932,31.7445731 0.861919257,29.5014261 Z"/><polygon id="hex" fill="#222" points="20.556 15.094 23.304 19.896 20.556 24.699 15.06 24.699 12.312 19.896 15.06 15.094"/></g></g></svg>